name rise32.9588peak41.5061fall63.4684.mot
datacolumns 19
datarows 14
range 6.34830700000000 6.36997600000000
endheader
time	ground_force1_vx	ground_force1_vy	ground_force1_vz	ground_force1_px	ground_force1_py	ground_force1_pz	ground_force2_vx	ground_force2_vy	ground_force2_vz	ground_force2_px	ground_force2_py	ground_force2_pz	ground_torque1_x	ground_torque1_y	ground_torque1_z	ground_torque2_x	ground_torque2_y	ground_torque2_z	
6.34830700000000	-32.98100700000000	805.22042499999998	52.06636300000000	0.13950800000000	0.00000000000000	0.10757800000000	-4.77231900000000	26.15857300000000	3.96361300000000	0.33694700000000	0.00000000000000	-0.05965200000000	0.00000000000000	21.53133000000000	0.00000000000000	0.00000000000000	2.34182000000000	0.00000000000000	
6.34997600000000	-33.46258000000000	803.12109399999997	51.82999200000000	0.13864800000000	0.00000000000000	0.10745000000000	-5.62094000000000	32.19792600000000	4.75219600000000	0.33906500000000	0.00000000000000	-0.06018200000000	0.00000000000000	21.44182100000000	0.00000000000000	0.00000000000000	2.82856400000000	0.00000000000000	
6.35163900000000	-33.95580000000000	800.89224899999999	51.57056700000000	0.13779800000000	0.00000000000000	0.10731700000000	-6.42925400000000	38.48834800000000	5.53525000000000	0.34123600000000	0.00000000000000	-0.06064100000000	0.00000000000000	21.35093500000000	0.00000000000000	0.00000000000000	3.32000200000000	0.00000000000000	
6.35330600000000	-34.46083300000000	798.53229499999998	51.28789400000000	0.13696100000000	0.00000000000000	0.10718100000000	-7.16939600000000	44.91290000000000	6.29150400000000	0.34344700000000	0.00000000000000	-0.06104100000000	0.00000000000000	21.25882300000000	0.00000000000000	0.00000000000000	3.80400000000000	0.00000000000000	
6.35497800000000	-34.97779600000000	796.03965400000004	50.98181800000000	0.13613700000000	0.00000000000000	0.10704000000000	-7.81771800000000	51.36605100000000	7.00242100000000	0.34568900000000	0.00000000000000	-0.06139200000000	0.00000000000000	21.16563100000000	0.00000000000000	0.00000000000000	4.26973200000000	0.00000000000000	
6.35664400000000	-35.50675500000000	793.41277300000002	50.65222800000000	0.13532700000000	0.00000000000000	0.10689500000000	-8.35604500000000	57.76051900000000	7.65324600000000	0.34795200000000	0.00000000000000	-0.06170300000000	0.00000000000000	21.07149600000000	0.00000000000000	0.00000000000000	4.70831700000000	0.00000000000000	
6.35831100000000	-36.04772500000000	790.65011800000002	50.29905700000000	0.13453200000000	0.00000000000000	0.10674600000000	-8.77231500000000	64.03163600000001	8.23358900000000	0.35022500000000	0.00000000000000	-0.06197900000000	0.00000000000000	20.97654600000000	0.00000000000000	0.00000000000000	5.11322300000000	0.00000000000000	
6.35997600000000	-36.60066500000000	787.75017900000000	49.92228000000000	0.13375400000000	0.00000000000000	0.10659200000000	-9.06063000000000	70.13918800000000	8.73756400000000	0.35250300000000	0.00000000000000	-0.06222700000000	0.00000000000000	20.88089500000000	0.00000000000000	0.00000000000000	5.48040800000000	0.00000000000000	
6.36164500000000	-37.16547800000000	784.71147199999996	49.52191600000000	0.13299200000000	0.00000000000000	0.10643400000000	-9.22079300000000	76.06693300000001	9.16354000000000	0.35477700000000	0.00000000000000	-0.06245000000000	0.00000000000000	20.78464900000000	0.00000000000000	0.00000000000000	5.80824300000000	0.00000000000000	
6.36331400000000	-37.74200700000000	781.53253800000005	49.09802800000000	0.13224900000000	0.00000000000000	0.10627100000000	-9.25746800000000	81.82023900000000	9.51357500000000	0.35704000000000	0.00000000000000	-0.06265400000000	0.00000000000000	20.68790000000000	0.00000000000000	0.00000000000000	6.09724600000000	0.00000000000000	
6.36497500000000	-38.33003300000000	778.21194900000000	48.65072300000000	0.13152300000000	0.00000000000000	0.10610400000000	-9.17908300000000	87.42235500000000	9.79265500000000	0.35928700000000	0.00000000000000	-0.06284100000000	0.00000000000000	20.59072600000000	0.00000000000000	0.00000000000000	6.34968000000000	0.00000000000000	
6.36664400000000	-38.92927400000000	774.74830899999995	48.18015700000000	0.13081700000000	0.00000000000000	0.10593200000000	-8.99662300000000	92.90985800000000	10.00781700000000	0.36151100000000	0.00000000000000	-0.06301500000000	0.00000000000000	20.49319100000000	0.00000000000000	0.00000000000000	6.56908000000000	0.00000000000000	
6.36830600000000	-39.53938100000000	771.14025300000003	47.68652500000000	0.13013100000000	0.00000000000000	0.10575600000000	-8.72242800000000	98.32781100000000	10.16726300000000	0.36370700000000	0.00000000000000	-0.06317700000000	0.00000000000000	20.39534500000000	0.00000000000000	0.00000000000000	6.75975100000000	0.00000000000000	
6.36997600000000	-40.15994000000000	767.38645799999995	47.17007200000000	0.12946400000000	0.00000000000000	0.10557600000000	-8.36909000000000	103.72505700000001	10.27952900000000	0.36586900000000	0.00000000000000	-0.06333000000000	0.00000000000000	20.29722200000000	0.00000000000000	0.00000000000000	6.92628400000000	0.00000000000000	
